# xmcd CD database file
#
# Track frame offsets:
#	150
#	26575
#	44845
#	67300
#	91152
#	113487
#	131312
#	147227
#	168010
#
# Disc length: 2510 seconds
#
# Revision: 5
# Processed by: cddbd v1.5PL3 Copyright (c) Steve Scherf et al.
# Submitted via: CDex 1.51
#
DISCID=7609cc09
DTITLE=Janet Jackson - Control
DYEAR=1986
DGENRE=Pop
TTITLE0=Control
TTITLE1=Nasty
TTITLE2=What Have You Done For Me Lately
TTITLE3=You Can Be Mine
TTITLE4=The Pleasure Principle
TTITLE5=When I Think Of You
TTITLE6=He Doesn't Know I'm Alive
TTITLE7=Let's Wait Awhile
TTITLE8=Funny How Time Flies (When You're Having Fun)
EXTD=YEAR: 1986
EXTT0=
EXTT1=
EXTT2=
EXTT3=
EXTT4=
EXTT5=
EXTT6=
EXTT7=
EXTT8=
PLAYORDER=
